<?xml version="1.0" encoding="UTF-8" standalone="no"?>
<!-- Created with Inkscape (http://www.inkscape.org/) -->

<svg
   width="46.716675mm"
   height="34.906273mm"
   viewBox="0 0 46.716675 34.906273"
   version="1.1"
   id="svg5"
   inkscape:version="1.1.1 (3bf5ae0d25, 2021-09-20, custom)"
   sodipodi:docname="icon.svg"
   xmlns:inkscape="http://www.inkscape.org/namespaces/inkscape"
   xmlns:sodipodi="http://sodipodi.sourceforge.net/DTD/sodipodi-0.dtd"
   xmlns="http://www.w3.org/2000/svg"
   xmlns:svg="http://www.w3.org/2000/svg">
  <sodipodi:namedview
     id="namedview7"
     pagecolor="#ffffff"
     bordercolor="#666666"
     borderopacity="1.0"
     inkscape:pageshadow="2"
     inkscape:pageopacity="0.0"
     inkscape:pagecheckerboard="0"
     inkscape:document-units="mm"
     showgrid="false"
     fit-margin-top="0"
     fit-margin-left="0"
     fit-margin-right="0"
     fit-margin-bottom="0"
     inkscape:zoom="1.4142136"
     inkscape:cx="73.185552"
     inkscape:cy="15.556349"
     inkscape:window-width="1920"
     inkscape:window-height="1018"
     inkscape:window-x="0"
     inkscape:window-y="38"
     inkscape:window-maximized="1"
     inkscape:current-layer="g209" />
  <defs
     id="defs2" />
  <g
     inkscape:label="Layer 1"
     inkscape:groupmode="layer"
     id="layer1"
     transform="translate(1.5500152,-75.141078)">
    <g
       id="g209"
       transform="translate(-6.8935618,1.0450803)">
      <path
         style="fill:#efd604;stroke-width:0.264583"
         d="M 51.910215,91.67189 49.13209,91.539599 46.353965,91.407307 v -2.778125 -2.778125 l 2.778125,-0.132292 2.778125,-0.132291 c -5e-6,6.085574 0,0 0,6.085416 z M 34.693451,91.189171 c -0.07399,-0.192818 -0.100018,-1.47274 -0.05784,-2.844271 l 0.07669,-2.493693 h 2.778125 2.778125 l 0.0751,2.844271 0.0751,2.844271 h -2.795379 c -2.076635,0 -2.82997,-0.09014 -2.929911,-0.350578 z"
         id="path215"
         sodipodi:nodetypes="ccccccccsscccccsss" />
      <path
         style="fill:#f1060a;stroke-width:0.264583"
         d="M 22.813523,90.953313 C 22.736878,90.62101 22.64431,89.337092 22.607816,88.100165 l -0.06635,-2.248958 -2.778125,-0.07382 -2.778125,-0.07382 0.132291,-2.836597 0.132292,-2.836598 5.759896,-0.132291 5.759896,-0.132292 -0.07135,5.820834 -0.07135,5.820833 -2.837002,0.07502 c -2.765462,0.07313 -2.840516,0.05979 -2.976356,-0.529167 z"
         id="path213" />
      <path
         style="fill:#0f0906;stroke-width:0.264583"
         d="m 11.156778,108.67152 c -0.06781,-0.1819 -0.153368,-4.0812 -0.190134,-8.6651 L 10.899797,91.67204 8.1216717,91.539749 5.3435466,91.407457 V 82.808499 74.20954 h 2.7781251 2.7781253 l 0.132291,5.688542 0.132292,5.688542 5.688542,0.132291 5.688542,0.132292 0.06635,2.248958 c 0.109743,3.719653 -0.125337,3.469778 3.182063,3.382315 l 2.837002,-0.07502 0.132291,-8.598958 0.132292,-8.598959 h 2.778125 2.778125 l 0.132292,2.778125 0.132291,2.778125 h 2.778125 2.778125 l 0.06635,-2.248958 c 0.109405,-3.708167 -0.10491,-3.470469 3.049847,-3.382613 l 2.704634,0.07532 0.132292,2.778125 0.132291,2.778125 2.853132,0.07519 2.853129,0.07519 -0.075,2.83523 -0.07501,2.83523 -2.778125,0.132291 -2.778125,0.132292 v 2.778125 2.778125 l 2.778125,0.132292 2.778125,0.132291 0.07501,2.835231 0.075,2.83523 -2.853129,0.07519 -2.853132,0.07519 -0.0713,5.754691 -0.07131,5.75469 h -2.772966 -2.772966 v -2.49464 c 0,-3.23888 -0.08345,-3.32751 -3.127753,-3.32214 -1.262912,0.002 -2.440413,0.0957 -2.616668,0.2077 -0.206653,0.13133 -0.347599,1.14 -0.396875,2.84022 l -0.07641,2.63657 h -2.778125 -2.778125 l -0.07641,-2.63657 c -0.04928,-1.70022 -0.190222,-2.70889 -0.396876,-2.84022 -0.554614,-0.35246 -10.886686,-0.25532 -11.247754,0.10575 -0.203747,0.20374 -0.3175,1.24648 -0.3175,2.91041 v 2.59292 h -2.786429 c -1.987002,0 -2.8218,-0.0949 -2.909715,-0.33073 z m 29.186866,-19.976042 -0.0751,-2.844271 h -2.778125 -2.778125 l -0.07669,2.493693 c -0.04218,1.371531 -0.01614,2.651453 0.05784,2.844271 0.09994,0.260437 0.853276,0.350578 2.929911,0.350578 h 2.795379 z"
         id="path211" />
    </g>
  </g>
</svg>
